<?xml version="1.0" standalone="no"?>
<!DOCTYPE svg PUBLIC "-//W3C//DTD SVG 20010904//EN"
 "http://www.w3.org/TR/2001/REC-SVG-20010904/DTD/svg10.dtd">
<svg version="1.0" xmlns="http://www.w3.org/2000/svg"
 width="1200.000000pt" height="1200.000000pt" viewBox="0 0 1200.000000 1200.000000"
 preserveAspectRatio="xMidYMid meet">
<metadata>
Created by potrace 1.14, written by Peter Selinger 2001-2017
</metadata>
<g transform="translate(0.000000,1200.000000) scale(0.100000,-0.100000)"
fill="#000000" stroke="none">
<path d="M7325 11023 c-27 -2 -108 -10 -180 -19 -959 -115 -1761 -517 -2189
-1098 -137 -185 -225 -374 -283 -611 -14 -55 -17 -114 -17 -280 1 -202 2 -214
32 -327 54 -206 145 -392 284 -581 127 -171 395 -411 613 -548 39 -24 79 -50
90 -56 109 -69 420 -210 620 -281 192 -69 595 -161 805 -184 l25 -3 5 -320 5
-320 510 0 510 0 3 317 2 317 33 5 c17 3 68 11 112 17 159 21 385 69 515 108
58 18 63 14 105 -66 22 -42 115 -217 207 -387 l166 -311 576 -3 c317 -1 576 1
576 5 0 8 -230 398 -589 998 l-101 170 27 22 c16 12 75 57 133 100 138 101
347 311 449 448 134 181 225 379 278 605 14 60 18 118 18 285 0 198 -2 216
-28 318 -78 297 -222 540 -467 787 -393 395 -901 652 -1610 814 -95 21 -397
64 -535 76 -109 9 -579 11 -700 3z m1310 -798 c397 -45 695 -124 960 -255 382
-188 594 -431 696 -796 31 -111 39 -401 14 -535 -59 -320 -237 -580 -530 -774
-86 -56 -157 -95 -175 -95 -6 0 -48 17 -93 39 -45 21 -113 49 -152 62 -107 35
-108 40 -13 60 151 32 333 109 434 184 241 181 359 429 358 755 -1 260 -69
450 -221 611 -136 144 -333 241 -573 283 -85 15 -204 16 -1150 14 l-1055 -3
-3 -1072 c-2 -934 -4 -1073 -17 -1073 -8 0 -47 11 -87 24 -500 163 -904 454
-1082 778 -123 223 -150 478 -75 703 200 596 1012 1043 2014 1109 129 8 616
-4 750 -19z m243 -1187 c125 -31 192 -114 200 -249 8 -135 -42 -229 -152 -287
l-51 -27 -352 -3 -353 -3 0 290 0 291 331 0 c217 0 346 -4 377 -12z m-345
-1349 c46 -30 113 -102 136 -146 10 -20 9 -23 -11 -27 -47 -10 -297 -26 -395
-26 l-103 0 0 115 0 115 163 0 164 0 46 -31z"/>
<path d="M3275 10854 c-405 -34 -594 -38 -1175 -25 -562 13 -565 13 -624 -8
-80 -28 -139 -79 -172 -149 -38 -77 -40 -200 -5 -279 29 -66 104 -136 179
-170 56 -25 59 -25 262 -21 323 8 387 -9 438 -111 26 -53 27 -64 29 -216 4
-279 24 -2221 26 -2435 1 -196 0 -208 -24 -265 -29 -72 -84 -118 -159 -134
-28 -6 -135 -11 -237 -11 -195 0 -277 -12 -354 -51 -80 -40 -123 -132 -123
-259 1 -137 57 -230 172 -283 59 -27 182 -29 527 -7 256 16 483 18 1145 10
l415 -5 53 24 c102 46 156 143 155 278 -1 90 -34 165 -96 218 -65 56 -112 65
-343 65 -112 0 -226 5 -253 11 -101 21 -150 76 -177 196 -14 66 -17 159 -19
717 -2 352 -5 715 -8 806 -17 512 -26 1210 -18 1262 28 167 101 204 376 192
227 -9 322 14 411 104 64 64 86 113 92 202 5 87 -18 163 -72 233 -47 62 -108
90 -256 121 -8 2 -82 -3 -165 -10z"/>
<path d="M1128 5679 c-98 -8 -169 -42 -232 -109 -68 -73 -89 -126 -84 -215 3
-57 10 -84 37 -136 49 -94 78 -129 130 -152 42 -20 70 -22 306 -27 252 -5 262
-6 310 -30 87 -43 92 -58 99 -292 9 -275 -1 -2602 -12 -2658 -11 -58 -23 -80
-66 -118 -73 -63 -138 -72 -471 -61 -73 2 -101 -2 -149 -19 -99 -36 -130 -63
-171 -145 -62 -125 -57 -224 17 -347 70 -116 158 -138 452 -117 255 19 1048
23 1171 6 50 -6 198 -12 330 -13 207 -1 247 1 292 17 73 26 134 83 168 159 73
162 6 342 -154 417 -54 25 -64 26 -296 31 -216 5 -244 7 -285 26 -56 27 -94
67 -117 124 -17 42 -18 121 -18 1365 0 726 1 1330 3 1343 2 12 8 22 14 22 12
0 90 -165 166 -355 33 -82 74 -181 92 -220 17 -38 53 -124 80 -190 26 -66 85
-205 130 -310 46 -104 100 -234 121 -287 21 -54 54 -129 74 -168 19 -38 52
-113 74 -167 21 -54 83 -198 136 -318 54 -121 160 -377 237 -569 149 -373 290
-677 358 -775 48 -69 131 -141 203 -178 163 -82 420 -83 579 -2 58 30 169 138
201 197 14 26 38 90 54 142 l28 95 0 515 c0 283 4 1003 8 1599 8 1043 9 1085
27 1120 30 56 44 69 96 93 45 20 70 23 289 29 286 8 317 15 400 91 104 94 136
185 111 308 -8 38 -22 82 -31 100 -27 52 -104 118 -164 141 -78 30 -274 36
-486 15 -88 -8 -308 -18 -490 -22 -270 -5 -355 -3 -465 10 -190 23 -487 31
-580 17 -140 -22 -251 -96 -296 -197 -20 -47 -23 -182 -6 -235 22 -64 116
-139 228 -181 54 -20 78 -22 284 -22 l225 -1 58 -28 c64 -32 98 -79 116 -159
17 -73 12 -1794 -6 -2368 l-8 -255 -109 240 c-60 132 -124 278 -143 324 -19
47 -50 116 -69 154 -19 37 -88 198 -154 356 -65 159 -144 342 -175 407 -31 66
-79 180 -107 254 -27 74 -88 217 -134 317 -46 101 -104 232 -129 292 -24 60
-78 183 -119 273 -40 90 -90 204 -111 253 -152 368 -287 525 -492 571 -57 13
-171 16 -673 18 -334 1 -610 4 -615 7 -6 3 -45 2 -87 -2z"/>
<path d="M7940 5648 c-102 -10 -1269 -12 -1495 -2 -299 13 -408 -25 -474 -166
-22 -47 -26 -68 -26 -150 1 -117 25 -181 92 -240 78 -69 112 -75 408 -75 276
-1 306 -5 400 -52 148 -75 189 -119 329 -350 45 -76 112 -179 147 -229 35 -49
87 -130 114 -178 28 -48 97 -163 154 -254 161 -257 301 -487 366 -597 32 -55
84 -138 115 -185 31 -47 88 -134 126 -195 l69 -110 -3 -270 c-7 -539 -17 -613
-95 -682 -64 -56 -123 -67 -367 -68 -247 0 -269 -6 -360 -91 -86 -80 -105
-177 -60 -309 18 -56 33 -80 74 -119 28 -27 75 -61 106 -75 52 -25 63 -26 210
-25 85 0 216 8 291 18 204 25 819 27 1114 2 135 -11 269 -17 346 -14 112 4
133 8 182 32 92 44 155 135 176 252 22 119 -18 217 -113 282 -82 55 -142 68
-291 63 -311 -10 -356 -8 -405 19 -56 31 -94 98 -109 190 -13 78 -5 709 10
785 7 35 32 83 86 164 41 63 148 236 238 385 89 149 235 388 325 531 194 309
305 492 385 635 77 138 123 206 190 278 103 111 225 142 565 142 208 0 269 8
335 43 49 25 93 78 122 147 23 55 28 79 27 155 0 78 -3 97 -26 141 -31 59 -69
94 -142 131 -45 23 -66 27 -178 31 -76 3 -218 -2 -350 -13 -191 -15 -295 -16
-733 -10 -869 12 -824 12 -877 -8 -64 -25 -142 -111 -163 -179 -46 -155 19
-321 149 -387 71 -35 204 -55 306 -45 104 10 148 7 178 -12 31 -20 29 -71 -4
-120 -32 -47 -133 -225 -201 -354 -28 -52 -79 -143 -114 -201 -35 -58 -125
-210 -199 -338 -153 -264 -270 -446 -285 -445 -11 1 -23 21 -287 484 -262 460
-354 617 -442 758 -89 143 -98 179 -51 220 27 23 33 24 119 17 115 -8 252 7
306 35 63 32 117 86 147 148 71 144 2 367 -132 428 -45 21 -192 48 -230 42 -5
0 -48 -5 -95 -10z"/>
<path d="M10653 1900 c-138 -28 -238 -123 -278 -264 -34 -117 2 -243 95 -336
74 -74 144 -103 250 -102 203 0 350 148 350 351 0 155 -83 277 -223 332 -54
21 -141 29 -194 19z m154 -66 c154 -52 244 -216 199 -365 -25 -84 -73 -142
-151 -180 -80 -39 -144 -47 -218 -25 -191 56 -276 284 -166 450 74 111 213
161 336 120z"/>
<path d="M10587 1752 c-15 -3 -17 -25 -17 -198 l0 -195 48 3 47 3 3 78 c3 73
4 77 26 77 19 0 29 -14 59 -80 l36 -80 50 0 c28 0 51 2 51 5 0 3 -19 42 -41
87 -31 62 -38 83 -28 87 8 2 26 17 41 32 39 39 40 109 2 144 -15 14 -41 27
-58 30 -35 7 -195 12 -219 7z m187 -75 c11 -8 19 -26 19 -42 0 -37 -26 -55
-80 -55 l-43 0 0 55 0 55 43 0 c24 0 51 -6 61 -13z"/>
</g>
</svg>
